# xmcd CD database file
#
# Track frame offsets:
#	150
#	17061
#	28263
#	50704
#	64963
#	80489
#	96189
#	114342
#	127409
#	153512
#	168031
#
# Disc length: 2469 seconds
#
# Revision: 0
# Processed by: cddbd v1.5.1PL0 Copyright (c) Steve Scherf et al.
# Submitted via: CDex 1.51
#
DISCID=9409a30b
DTITLE=かとうかなこ - ひだまり
DYEAR=2004
DGENRE=Instrumental
TTITLE0=La plage 〜渚〜
TTITLE1=カプリシュゼット capricieusette
TTITLE2=ひだまり
TTITLE3=ラ　ブブネット　Laboubounette
TTITLE4=夏のワルツ
TTITLE5=彼に捧げるショーロ　Chorinho pra ele
TTITLE6=アジア・フラッシュ　Asia flasu
TTITLE7=プチットゥ　ミヌッシュ　Petite minouche
TTITLE8=あかね雲
TTITLE9=ムッシュー　ルードゥドゥ　Mr.Roudoudou
TTITLE10=Le ciel 〜空〜
EXTD=YEAR: 2004
EXTT0=
EXTT1=
EXTT2=
EXTT3=
EXTT4=
EXTT5=
EXTT6=
EXTT7=
EXTT8=
EXTT9=
EXTT10=
PLAYORDER=
